<?xml version="1.0" encoding="utf-8"?>
<!-- Generator: Adobe Illustrator 16.0.0, SVG Export Plug-In . SVG Version: 6.00 Build 0)  -->
<!DOCTYPE svg PUBLIC "-//W3C//DTD SVG 1.1//EN" "http://www.w3.org/Graphics/SVG/1.1/DTD/svg11.dtd">
<svg version="1.1" id="Layer_1" xmlns="http://www.w3.org/2000/svg" xmlns:xlink="http://www.w3.org/1999/xlink" x="0px" y="0px"
	 width="245px" height="80px" viewBox="0 0 245 80" enable-background="new 0 0 245 80" xml:space="preserve">
<g>
	<rect x="27" y="31" fill="#212529" width="7" height="7"/>
	<rect x="8" y="17" fill="#212529" width="8" height="44"/>
	<rect x="45" y="31" fill="#212529" width="7" height="7"/>
	<path fill="#212529" d="M59.53,48c0,4-2.024,5-5.975,5H24v8h32.506c6,0,10.494-3.68,10.494-9.68V17h-7.494L59.53,48z"/>
</g>
<g>
	<path fill="#212529" d="M79.303,19.641h3.334v14.7h-3.334V19.641z"/>
	<path fill="#212529" d="M99.266,19.641v14.7h-2.737l-7.183-8.925v8.925h-3.293v-14.7h2.758l7.162,8.925v-8.925H99.266z"/>
	<path fill="#212529" d="M105.666,22.412h-4.61v-2.771h12.554v2.771H109v11.929h-3.334V22.412z"/>
	<path fill="#212529" d="M126.555,31.61v2.73H115.4v-14.7h10.887v2.729h-7.573v3.192h6.688v2.646h-6.688v3.401h7.841V31.61z"/>
	<path fill="#212529" d="M129.209,19.641h3.334v11.928h7.225v2.772h-10.559V19.641z"/>
	<path fill="#212529" d="M141.639,19.641h3.334v11.928h7.225v2.772h-10.559V19.641z"/>
	<path fill="#212529" d="M154.068,19.641h3.334v14.7h-3.334V19.641z"/>
	<path fill="#212529" d="M170.553,26.76h3.047v5.964c-0.783,0.603-1.688,1.064-2.718,1.386c-1.028,0.322-2.063,0.483-3.106,0.483
		c-1.495,0-2.84-0.326-4.033-0.977c-1.194-0.651-2.131-1.554-2.811-2.709c-0.679-1.155-1.019-2.46-1.019-3.917
		c0-1.455,0.34-2.761,1.019-3.916c0.68-1.155,1.623-2.059,2.83-2.709c1.207-0.651,2.565-0.977,4.074-0.977
		c1.264,0,2.408,0.217,3.438,0.651c1.028,0.434,1.894,1.063,2.594,1.89l-2.141,2.016c-1.028-1.105-2.271-1.659-3.726-1.659
		c-0.919,0-1.735,0.196-2.449,0.589c-0.714,0.392-1.27,0.944-1.667,1.658c-0.396,0.715-0.597,1.533-0.597,2.457
		c0,0.91,0.198,1.723,0.597,2.438c0.398,0.714,0.95,1.271,1.657,1.669c0.706,0.399,1.513,0.599,2.418,0.599
		c0.96,0,1.824-0.21,2.593-0.63V26.76z"/>
	<path fill="#212529" d="M187.84,31.61v2.73h-11.154v-14.7h10.888v2.729H180v3.192h6.688v2.646H180v3.401h7.84V31.61z"/>
	<path fill="#212529" d="M203.708,19.641v14.7h-2.737l-7.183-8.925v8.925h-3.293v-14.7h2.758l7.162,8.925v-8.925H203.708z"/>
	<path fill="#212529" d="M210.035,33.616c-1.188-0.651-2.12-1.554-2.799-2.709c-0.68-1.155-1.02-2.46-1.02-3.917
		c0-1.455,0.34-2.761,1.02-3.916c0.679-1.155,1.611-2.059,2.799-2.709c1.188-0.651,2.521-0.977,4.003-0.977
		c1.248,0,2.377,0.224,3.386,0.672c1.008,0.448,1.855,1.092,2.541,1.932l-2.14,2.017c-0.976-1.148-2.183-1.723-3.622-1.723
		c-0.893,0-1.688,0.2-2.389,0.599c-0.699,0.399-1.244,0.956-1.635,1.67c-0.393,0.714-0.588,1.526-0.588,2.436
		c0,0.91,0.195,1.723,0.588,2.437c0.391,0.714,0.936,1.271,1.635,1.669c0.701,0.399,1.496,0.599,2.389,0.599
		c1.439,0,2.646-0.58,3.622-1.743l2.14,2.017c-0.686,0.854-1.535,1.505-2.552,1.953c-1.017,0.447-2.147,0.672-3.396,0.672
		C212.549,34.593,211.223,34.267,210.035,33.616z"/>
	<path fill="#212529" d="M233.361,31.61v2.73h-11.153v-14.7h10.887v2.729h-7.573v3.192h6.688v2.646h-6.688v3.401h7.84V31.61z"/>
	<path fill="#212529" d="M79.303,44.641h3.334v11.928h7.224v2.772H79.303V44.641z"/>
	<path fill="#212529" d="M101.344,56.189h-6.688l-1.275,3.15h-3.417l6.421-14.699h3.293l6.441,14.699h-3.498L101.344,56.189z
		 M100.294,53.607l-2.284-5.629l-2.284,5.629H100.294z"/>
	<path fill="#212529" d="M120.133,53.029c0.467,0.623,0.7,1.391,0.7,2.3c0,1.289-0.491,2.278-1.472,2.972s-2.411,1.04-4.291,1.04
		h-7.45v-14.7h7.038c1.757,0,3.104,0.344,4.044,1.029s1.41,1.616,1.41,2.793c0,0.715-0.168,1.352-0.504,1.911
		c-0.337,0.56-0.807,1.001-1.41,1.321C119.021,51.963,119.666,52.406,120.133,53.029z M110.934,47.202v3.466h3.313
		c0.823,0,1.447-0.146,1.873-0.441c0.425-0.293,0.638-0.728,0.638-1.302c0-0.573-0.213-1.005-0.638-1.292
		c-0.426-0.285-1.05-0.431-1.873-0.431H110.934z M116.81,56.338c0.445-0.294,0.669-0.749,0.669-1.365
		c0-1.218-0.886-1.826-2.655-1.826h-3.89v3.633h3.89C115.701,56.777,116.363,56.632,116.81,56.338z"/>
	<path fill="#212529" d="M124.795,59.12c-1.063-0.315-1.918-0.726-2.563-1.229l1.132-2.563c0.616,0.463,1.352,0.834,2.202,1.113
		s1.701,0.42,2.552,0.42c0.946,0,1.646-0.145,2.1-0.432c0.452-0.285,0.679-0.668,0.679-1.145c0-0.35-0.133-0.641-0.4-0.871
		s-0.61-0.416-1.028-0.557c-0.419-0.141-0.985-0.295-1.698-0.463c-1.098-0.266-1.996-0.531-2.695-0.797
		c-0.699-0.267-1.301-0.693-1.801-1.281c-0.501-0.588-0.751-1.373-0.751-2.353c0-0.854,0.227-1.628,0.68-2.319
		c0.452-0.693,1.135-1.244,2.047-1.648c0.913-0.406,2.026-0.609,3.345-0.609c0.92,0,1.817,0.112,2.696,0.336
		c0.878,0.225,1.646,0.547,2.305,0.967l-1.028,2.582c-1.332-0.77-2.662-1.154-3.992-1.154c-0.934,0-1.623,0.154-2.068,0.463
		s-0.669,0.714-0.669,1.218c0,0.505,0.257,0.88,0.771,1.123c0.516,0.245,1.301,0.485,2.356,0.726
		c1.099,0.267,1.996,0.531,2.696,0.797c0.699,0.268,1.3,0.688,1.801,1.261s0.751,1.353,0.751,2.331c0,0.841-0.229,1.605-0.688,2.3
		c-0.461,0.694-1.149,1.243-2.068,1.647c-0.919,0.406-2.037,0.609-3.354,0.609C126.959,59.594,125.857,59.436,124.795,59.12z"/>
</g>
</svg>
